<mxfile host="app.diagrams.net" modified="2023-05-26T15:50:33.026Z" agent="Mozilla/5.0 (Windows NT 10.0; Win64; x64) AppleWebKit/537.36 (KHTML, like Gecko) Chrome/113.0.0.0 Safari/537.36 Edg/113.0.1774.50" etag="NdW8NSljvJzOdZHF8ukb" version="21.3.4" type="github">
  <diagram name="Page-1" id="2YBvvXClWsGukQMizWep">
    <mxGraphModel dx="1216" dy="614" grid="1" gridSize="10" guides="1" tooltips="1" connect="1" arrows="1" fold="1" page="1" pageScale="1" pageWidth="850" pageHeight="1100" math="0" shadow="0">
      <root>
        <mxCell id="0" />
        <mxCell id="1" parent="0" />
        <mxCell id="rC8Kol3o8-uaxdjfBFgR-9" value="" style="rounded=0;whiteSpace=wrap;html=1;" vertex="1" parent="1">
          <mxGeometry x="40" y="100" width="670" height="260" as="geometry" />
        </mxCell>
        <mxCell id="rC8Kol3o8-uaxdjfBFgR-1" value="Component&lt;br&gt;" style="rounded=0;whiteSpace=wrap;html=1;" vertex="1" parent="1">
          <mxGeometry x="80" y="120" width="280" height="220" as="geometry" />
        </mxCell>
        <mxCell id="rC8Kol3o8-uaxdjfBFgR-2" value="vista" style="rounded=1;whiteSpace=wrap;html=1;" vertex="1" parent="1">
          <mxGeometry x="90" y="260" width="120" height="60" as="geometry" />
        </mxCell>
        <mxCell id="rC8Kol3o8-uaxdjfBFgR-13" style="edgeStyle=orthogonalEdgeStyle;rounded=0;orthogonalLoop=1;jettySize=auto;html=1;exitX=0;exitY=0.5;exitDx=0;exitDy=0;" edge="1" parent="1" source="rC8Kol3o8-uaxdjfBFgR-3" target="rC8Kol3o8-uaxdjfBFgR-2">
          <mxGeometry relative="1" as="geometry" />
        </mxCell>
        <mxCell id="rC8Kol3o8-uaxdjfBFgR-3" value="Metodo" style="rounded=0;whiteSpace=wrap;html=1;" vertex="1" parent="1">
          <mxGeometry x="230" y="260" width="120" height="60" as="geometry" />
        </mxCell>
        <mxCell id="rC8Kol3o8-uaxdjfBFgR-12" style="edgeStyle=orthogonalEdgeStyle;rounded=0;orthogonalLoop=1;jettySize=auto;html=1;exitX=0;exitY=0.5;exitDx=0;exitDy=0;" edge="1" parent="1" source="rC8Kol3o8-uaxdjfBFgR-4" target="rC8Kol3o8-uaxdjfBFgR-3">
          <mxGeometry relative="1" as="geometry">
            <Array as="points">
              <mxPoint x="290" y="230" />
            </Array>
          </mxGeometry>
        </mxCell>
        <mxCell id="rC8Kol3o8-uaxdjfBFgR-4" value="Servicio" style="rounded=0;whiteSpace=wrap;html=1;" vertex="1" parent="1">
          <mxGeometry x="410" y="120" width="280" height="220" as="geometry" />
        </mxCell>
        <mxCell id="rC8Kol3o8-uaxdjfBFgR-5" value="Modelo" style="rounded=0;whiteSpace=wrap;html=1;" vertex="1" parent="1">
          <mxGeometry x="490" y="260" width="120" height="60" as="geometry" />
        </mxCell>
        <mxCell id="rC8Kol3o8-uaxdjfBFgR-11" style="edgeStyle=orthogonalEdgeStyle;rounded=0;orthogonalLoop=1;jettySize=auto;html=1;exitX=0;exitY=0.5;exitDx=0;exitDy=0;" edge="1" parent="1" source="rC8Kol3o8-uaxdjfBFgR-8" target="rC8Kol3o8-uaxdjfBFgR-4">
          <mxGeometry relative="1" as="geometry" />
        </mxCell>
        <mxCell id="rC8Kol3o8-uaxdjfBFgR-8" value="Backend" style="rounded=0;whiteSpace=wrap;html=1;" vertex="1" parent="1">
          <mxGeometry x="720" y="100" width="120" height="260" as="geometry" />
        </mxCell>
        <mxCell id="rC8Kol3o8-uaxdjfBFgR-6" value="" style="shape=cylinder3;whiteSpace=wrap;html=1;boundedLbl=1;backgroundOutline=1;size=15;" vertex="1" parent="1">
          <mxGeometry x="770" y="240" width="60" height="80" as="geometry" />
        </mxCell>
      </root>
    </mxGraphModel>
  </diagram>
</mxfile>
